<svg width="50" height="50" viewBox="0 0 50 50" fill="none" xmlns="http://www.w3.org/2000/svg">
<circle cx="25" cy="25" r="25" fill="url(#paint0_linear_61_184)"/>
<path fill-rule="evenodd" clip-rule="evenodd" d="M20.4195 13.9557C21.6043 13.9012 21.9821 13.889 25.0003 13.889C28.0185 13.889 28.3962 13.9022 29.5801 13.9557C30.7639 14.0092 31.572 14.1981 32.2791 14.4719C33.0195 14.7517 33.6912 15.189 34.2467 15.7547C34.8124 16.3092 35.2488 16.9799 35.5275 17.7214C35.8023 18.4284 35.9902 19.2365 36.0447 20.4183C36.0993 21.6052 36.1114 21.983 36.1114 25.0001C36.1114 28.0183 36.0983 28.3961 36.0447 29.581C35.9912 30.7628 35.8023 31.5709 35.5275 32.2779C35.2488 33.0194 34.8117 33.6913 34.2467 34.2466C33.6912 34.8123 33.0195 35.2486 32.2791 35.5274C31.572 35.8022 30.7639 35.99 29.5821 36.0446C28.3962 36.0991 28.0185 36.1113 25.0003 36.1113C21.9821 36.1113 21.6043 36.0981 20.4195 36.0446C19.2376 35.9911 18.4296 35.8022 17.7225 35.5274C16.981 35.2486 16.3092 34.8115 15.7538 34.2466C15.1885 33.6917 14.7511 33.0202 14.472 32.2789C14.1983 31.5719 14.0104 30.7638 13.9558 29.582C13.9013 28.3951 13.8892 28.0173 13.8892 25.0001C13.8892 21.982 13.9023 21.6042 13.9558 20.4204C14.0094 19.2365 14.1983 18.4284 14.472 17.7214C14.7515 16.98 15.1893 16.3085 15.7548 15.7537C16.3094 15.1885 16.9805 14.7511 17.7215 14.4719C18.4286 14.1981 19.2366 14.0103 20.4185 13.9557H20.4195ZM29.4902 15.9557C28.3185 15.9022 27.9669 15.8911 25.0003 15.8911C22.0336 15.8911 21.6821 15.9022 20.5104 15.9557C19.4265 16.0052 18.8387 16.186 18.4467 16.3385C17.9286 16.5406 17.5578 16.7799 17.169 17.1688C16.8003 17.5275 16.5166 17.9641 16.3387 18.4466C16.1861 18.8385 16.0053 19.4264 15.9558 20.5103C15.9023 21.682 15.8912 22.0335 15.8912 25.0001C15.8912 27.9668 15.9023 28.3183 15.9558 29.49C16.0053 30.5739 16.1861 31.1618 16.3387 31.5537C16.5164 32.0355 16.8003 32.4729 17.169 32.8315C17.5275 33.2002 17.9649 33.484 18.4467 33.6618C18.8387 33.8143 19.4265 33.9951 20.5104 34.0446C21.6821 34.0981 22.0326 34.1092 25.0003 34.1092C27.9679 34.1092 28.3185 34.0981 29.4902 34.0446C30.574 33.9951 31.1619 33.8143 31.5538 33.6618C32.072 33.4597 32.4427 33.2204 32.8316 32.8315C33.2003 32.4729 33.4841 32.0355 33.6619 31.5537C33.8144 31.1618 33.9952 30.5739 34.0447 29.49C34.0983 28.3183 34.1094 27.9668 34.1094 25.0001C34.1094 22.0335 34.0983 21.682 34.0447 20.5103C33.9952 19.4264 33.8144 18.8385 33.6619 18.4466C33.4599 17.9284 33.2205 17.5577 32.8316 17.1688C32.4729 16.8002 32.0363 16.5165 31.5538 16.3385C31.1619 16.186 30.574 16.0052 29.4902 15.9557ZM23.5811 28.4254C24.3737 28.7553 25.2562 28.7999 26.078 28.5514C26.8997 28.3029 27.6098 27.7768 28.0867 27.063C28.5637 26.3492 28.7781 25.4919 28.6932 24.6376C28.6084 23.7833 28.2296 22.985 27.6215 22.3789C27.2338 21.9915 26.7651 21.6949 26.2491 21.5104C25.7331 21.3259 25.1825 21.2581 24.6371 21.3119C24.0917 21.3657 23.5651 21.5397 23.095 21.8215C22.625 22.1033 22.2232 22.4858 21.9188 22.9414C21.6143 23.3971 21.4146 23.9146 21.3341 24.4567C21.2536 24.9988 21.2944 25.552 21.4533 26.0764C21.6123 26.6009 21.8856 27.0836 22.2535 27.4898C22.6214 27.8959 23.0748 28.2155 23.5811 28.4254ZM20.9619 20.9618C21.4922 20.4314 22.1218 20.0108 22.8147 19.7237C23.5076 19.4367 24.2503 19.289 25.0003 19.289C25.7503 19.289 26.4929 19.4367 27.1858 19.7237C27.8787 20.0108 28.5083 20.4314 29.0387 20.9618C29.569 21.4921 29.9897 22.1217 30.2767 22.8146C30.5637 23.5075 30.7114 24.2502 30.7114 25.0001C30.7114 25.7501 30.5637 26.4928 30.2767 27.1857C29.9897 27.8786 29.569 28.5082 29.0387 29.0385C27.9676 30.1096 26.515 30.7113 25.0003 30.7113C23.4856 30.7113 22.0329 30.1096 20.9619 29.0385C19.8908 27.9675 19.2891 26.5148 19.2891 25.0001C19.2891 23.4855 19.8908 22.0328 20.9619 20.9618ZM31.9781 20.1395C32.1095 20.0156 32.2147 19.8665 32.2874 19.7011C32.3602 19.5358 32.3991 19.3575 32.4017 19.1768C32.4043 18.9962 32.3707 18.8169 32.3028 18.6495C32.2349 18.482 32.134 18.33 32.0063 18.2022C31.8785 18.0745 31.7265 17.9736 31.5591 17.9057C31.3916 17.8378 31.2123 17.8042 31.0317 17.8068C30.851 17.8094 30.6727 17.8483 30.5074 17.9211C30.342 17.9938 30.1929 18.099 30.069 18.2305C29.8279 18.486 29.6959 18.8255 29.701 19.1768C29.7061 19.5282 29.8479 19.8637 30.0964 20.1121C30.3448 20.3606 30.6803 20.5024 31.0317 20.5075C31.383 20.5126 31.7225 20.3806 31.9781 20.1395Z" fill="white"/>
<defs>
<linearGradient id="paint0_linear_61_184" x1="36.1111" y1="1.38889" x2="11.1111" y2="45.8333" gradientUnits="userSpaceOnUse">
<stop stop-color="#405DE6"/>
<stop offset="0.109866" stop-color="#5851DB"/>
<stop offset="0.253313" stop-color="#833AB4"/>
<stop offset="0.389996" stop-color="#C13584"/>
<stop offset="0.510636" stop-color="#E1306C"/>
<stop offset="0.746905" stop-color="#F56040"/>
<stop offset="0.823849" stop-color="#F77737"/>
<stop offset="0.918109" stop-color="#FCAF45"/>
<stop offset="0.999675" stop-color="#FFDC80"/>
</linearGradient>
</defs>
</svg>
