<svg width="14" height="15" viewBox="0 0 14 15" fill="none" xmlns="http://www.w3.org/2000/svg">
<path fill-rule="evenodd" clip-rule="evenodd" d="M3.98237 0.620907C4.70475 0.587651 4.93508 0.580261 6.7752 0.580261C8.61533 0.580261 8.84565 0.588267 9.56742 0.620907C10.2892 0.653546 10.7818 0.768708 11.2129 0.9356C11.6643 1.10619 12.0739 1.37285 12.4126 1.71772C12.7575 2.05581 13.0235 2.46473 13.1935 2.91675C13.361 3.34784 13.4755 3.84051 13.5088 4.56104C13.542 5.28465 13.5494 5.51498 13.5494 7.35449C13.5494 9.19461 13.5414 9.42494 13.5088 10.1473C13.4761 10.8678 13.361 11.3605 13.1935 11.7916C13.0235 12.2437 12.757 12.6533 12.4126 12.9919C12.0739 13.3367 11.6643 13.6028 11.2129 13.7728C10.7818 13.9403 10.2892 14.0548 9.56865 14.0881C8.84565 14.1213 8.61533 14.1287 6.7752 14.1287C4.93508 14.1287 4.70475 14.1207 3.98237 14.0881C3.26184 14.0554 2.76917 13.9403 2.33808 13.7728C1.88601 13.6028 1.47642 13.3363 1.13781 12.9919C0.793179 12.6536 0.526481 12.2442 0.356316 11.7922C0.189423 11.3611 0.0748772 10.8685 0.0416219 10.1479C0.00836662 9.42432 0.000976562 9.194 0.000976562 7.35449C0.000976562 5.51436 0.00898246 5.28404 0.0416219 4.56227C0.0742614 3.84051 0.189423 3.34784 0.356316 2.91675C0.526732 2.46478 0.793634 2.05539 1.13843 1.7171C1.47655 1.37254 1.88573 1.10584 2.33747 0.9356C2.76856 0.768708 3.26123 0.654162 3.98176 0.620907H3.98237ZM9.51261 1.84027C8.79823 1.80763 8.58392 1.80085 6.7752 1.80085C4.96648 1.80085 4.75217 1.80763 4.0378 1.84027C3.377 1.87044 3.01859 1.98068 2.77964 2.07367C2.46372 2.19684 2.2377 2.34279 2.0006 2.57989C1.77585 2.79854 1.60288 3.06473 1.49439 3.35893C1.40139 3.59787 1.29116 3.95629 1.26098 4.61708C1.22834 5.33146 1.22157 5.54577 1.22157 7.35449C1.22157 9.16321 1.22834 9.37752 1.26098 10.0919C1.29116 10.7527 1.40139 11.1111 1.49439 11.35C1.60277 11.6438 1.77582 11.9105 2.0006 12.1291C2.21923 12.3539 2.48589 12.5269 2.77964 12.6353C3.01859 12.7283 3.377 12.8385 4.0378 12.8687C4.75217 12.9013 4.96587 12.9081 6.7752 12.9081C8.58454 12.9081 8.79823 12.9013 9.51261 12.8687C10.1734 12.8385 10.5318 12.7283 10.7708 12.6353C11.0867 12.5121 11.3127 12.3662 11.5498 12.1291C11.7746 11.9105 11.9476 11.6438 12.056 11.35C12.149 11.1111 12.2592 10.7527 12.2894 10.0919C12.3221 9.37752 12.3288 9.16321 12.3288 7.35449C12.3288 5.54577 12.3221 5.33146 12.2894 4.61708C12.2592 3.95629 12.149 3.59787 12.056 3.35893C11.9329 3.043 11.7869 2.81699 11.5498 2.57989C11.3311 2.35515 11.065 2.18219 10.7708 2.07367C10.5318 1.98068 10.1734 1.87044 9.51261 1.84027ZM5.90995 9.4428C6.39317 9.64395 6.93124 9.6711 7.43226 9.5196C7.93327 9.36811 8.36616 9.04738 8.65697 8.61218C8.94777 8.17698 9.07847 7.65432 9.02674 7.13347C8.975 6.61261 8.74404 6.12587 8.3733 5.75639C8.13697 5.5202 7.8512 5.33935 7.53658 5.22685C7.22196 5.11436 6.88632 5.07303 6.55381 5.10582C6.22129 5.13862 5.90019 5.24473 5.61361 5.41652C5.32703 5.58831 5.0821 5.82151 4.89646 6.09932C4.71083 6.37713 4.58909 6.69264 4.54003 7.02314C4.49096 7.35364 4.51578 7.69092 4.61271 8.01067C4.70963 8.33043 4.87625 8.62472 5.10056 8.87236C5.32488 9.11999 5.60131 9.31481 5.90995 9.4428ZM4.31308 4.89236C4.63641 4.56903 5.02026 4.31255 5.44271 4.13757C5.86516 3.96258 6.31794 3.87252 6.7752 3.87252C7.23246 3.87252 7.68524 3.96258 8.10769 4.13757C8.53015 4.31255 8.91399 4.56903 9.23733 4.89236C9.56066 5.21569 9.81714 5.59954 9.99212 6.022C10.1671 6.44445 10.2572 6.89723 10.2572 7.35449C10.2572 7.81175 10.1671 8.26453 9.99212 8.68698C9.81714 9.10943 9.56066 9.49328 9.23733 9.81661C8.58433 10.4696 7.69868 10.8365 6.7752 10.8365C5.85173 10.8365 4.96607 10.4696 4.31308 9.81661C3.66008 9.16361 3.29323 8.27796 3.29323 7.35449C3.29323 6.43101 3.66008 5.54536 4.31308 4.89236ZM11.0294 4.39107C11.1095 4.31549 11.1737 4.2246 11.2181 4.12378C11.2624 4.02296 11.2861 3.91427 11.2877 3.80413C11.2893 3.694 11.2688 3.58466 11.2274 3.48259C11.186 3.38052 11.1245 3.2878 11.0466 3.20992C10.9687 3.13203 10.876 3.07056 10.774 3.02915C10.6719 2.98775 10.5626 2.96724 10.4524 2.96884C10.3423 2.97045 10.2336 2.99414 10.1328 3.0385C10.032 3.08287 9.94106 3.14701 9.86548 3.22714C9.71849 3.38296 9.63801 3.58994 9.64113 3.80413C9.64425 4.01833 9.73073 4.22287 9.88221 4.37435C10.0337 4.52582 10.2382 4.6123 10.4524 4.61542C10.6666 4.61854 10.8736 4.53807 11.0294 4.39107Z" fill="#A4A7B1"/>
</svg>
