<svg width="17" height="17" viewBox="0 0 17 17" fill="none" xmlns="http://www.w3.org/2000/svg">
<path fill-rule="evenodd" clip-rule="evenodd" d="M3.80416 0.00306925L3.77998 0.00146665C2.66066 -0.0506105 1.08111 1.29526 0.497467 2.2687C-0.142921 3.14342 -0.155234 4.30503 0.403998 5.64867L0.492162 5.85157C1.96575 9.48067 7.49532 15.0033 11.1102 16.5153C12.4934 17.1623 13.7261 17.1742 14.6973 16.4748C15.5512 15.9866 16.9517 14.3623 16.9112 13.2087C16.8727 12.7341 16.6521 12.3466 16.3094 11.9939L16.2257 11.9108L15.9929 11.6955C15.1499 10.9416 13.6903 9.86835 13.2388 9.77347C12.7087 9.66296 12.3493 9.76189 11.7824 10.0745L11.5713 10.1946C11.1681 10.4271 11.0239 10.4668 10.8329 10.3971C8.81597 9.5691 7.39369 8.13969 6.56022 6.08935C6.50604 5.93744 6.53283 5.80476 6.70814 5.4831L6.80051 5.31907C7.18263 4.65167 7.31073 4.27439 7.19038 3.69343L7.16913 3.61814C6.9717 3.04335 5.76166 1.42166 5.08979 0.71566L4.98155 0.606154C4.6314 0.262274 4.24638 0.0411392 3.80416 0.00306925ZM3.71018 1.24429L3.75628 1.25314C3.83694 1.27591 3.93207 1.33177 4.03919 1.42381L4.11721 1.49516L4.26447 1.65018C4.83572 2.28091 5.94241 3.76831 5.97902 3.94616C6.01361 4.11313 5.97535 4.25267 5.79409 4.58153L5.69925 4.74919C5.30009 5.44814 5.17654 5.89881 5.40592 6.53614C6.37419 8.91946 8.04072 10.5943 10.3881 11.5574C10.9936 11.7788 11.4227 11.6903 12.0308 11.3608L12.2391 11.2431C12.6517 11.0046 12.8027 10.9527 12.9866 10.9911C13.1663 11.0288 14.7742 12.2356 15.3636 12.8027L15.4324 12.8711C15.5844 13.0277 15.6675 13.1736 15.6765 13.2819C15.6847 13.535 15.4313 14.0104 14.9839 14.5294C14.6653 14.8988 14.2518 15.2765 14.0724 15.4018L14.0296 15.4295C13.4503 15.843 12.7348 15.8607 11.7887 15.4576L11.6086 15.3771C8.34021 14.0095 3.20027 8.91471 1.71577 5.56578L1.6278 5.35879C1.16781 4.34136 1.12965 3.59753 1.45993 3.05634L1.52617 2.95723C1.90898 2.32337 3.06264 1.32499 3.63706 1.24814L3.71018 1.24429ZM10.5586 0.206855L10.6426 0.210525C13.9829 0.583366 16.6208 3.23223 16.9962 6.5901C17.0344 6.93141 16.7901 7.2392 16.4506 7.27757C16.1111 7.31593 15.805 7.07034 15.7668 6.72903C15.456 3.94867 13.2719 1.75544 10.5061 1.44673C10.1666 1.40883 9.92188 1.10137 9.95958 0.760005C9.99099 0.475531 10.2086 0.257278 10.4768 0.214361L10.5586 0.206855ZM10.6092 3.1459L10.6927 3.15647C12.3998 3.491 13.7337 4.83216 14.0665 6.54845C14.1318 6.88557 13.913 7.21213 13.5777 7.27784C13.2424 7.34355 12.9175 7.12352 12.8522 6.7864C12.6158 5.56732 11.6685 4.61491 10.456 4.3773C10.1207 4.31159 9.90181 3.98503 9.96717 3.6479C10.0216 3.36697 10.2563 3.16735 10.527 3.14665L10.6092 3.1459Z" fill="#222831"/>
</svg>
