<svg width="19" height="19" viewBox="0 0 19 19" fill="none" xmlns="http://www.w3.org/2000/svg">
<path fill-rule="evenodd" clip-rule="evenodd" d="M1.43872 3.12279C1.72174 2.65417 3.28113 0.949684 4.39393 1.00114C4.72658 1.02871 5.02063 1.22994 5.25954 1.46333C5.80813 1.99903 7.37855 4.02512 7.46768 4.45147C7.68454 5.49714 6.4385 6.09991 6.81985 7.15385C7.79206 9.53278 9.46723 11.2079 11.8472 12.1791C12.9003 12.5604 13.5031 11.3145 14.5488 11.5322C14.9743 11.6214 17.0014 13.1917 17.5371 13.7403C17.7696 13.9782 17.9717 14.2732 17.9993 14.6058C18.0407 15.7774 16.2304 17.3587 15.8775 17.5609C15.045 18.1563 13.9589 18.1462 12.6347 17.5306C8.93977 15.9933 3.03486 10.1999 1.46904 6.36546C0.869913 5.04873 0.828562 3.95528 1.43872 3.12279Z" stroke="#200E32" stroke-width="1.5" stroke-linecap="round" stroke-linejoin="round"/>
</svg>
