<svg width="31" height="31" viewBox="0 0 31 31" fill="none" xmlns="http://www.w3.org/2000/svg">
<path opacity="0.3" fill-rule="evenodd" clip-rule="evenodd" d="M15.2258 0C2.68736 0 0 2.68736 0 15.2258C0 27.7643 2.68736 30.4516 15.2258 30.4516C27.7643 30.4516 30.4516 27.7643 30.4516 15.2258C30.4516 2.68736 27.7643 0 15.2258 0ZM11.2062 9.68085V20.0293H16.0459C18.0415 20.0293 19.5499 18.7436 19.5499 16.9561C19.5499 16.2501 19.3237 15.6651 18.9139 15.2143C18.632 14.9043 18.2633 14.6577 17.8215 14.4788C18.1243 14.143 18.3151 13.7513 18.3995 13.3036C18.4333 13.1242 18.45 12.9358 18.45 12.7384C18.45 10.9352 16.9415 9.68085 14.946 9.68085H11.2062ZM20.1588 14.6772C19.9847 14.4332 19.7847 14.2158 19.5643 14.0238C19.6968 13.6154 19.7594 13.1838 19.7594 12.7384C19.7594 10.0383 17.4756 8.37423 14.946 8.37423H9.89678V21.3359H16.0459C18.5897 21.3359 20.8594 19.6282 20.8594 16.9561C20.8594 16.1153 20.6283 15.3348 20.1588 14.6772ZM14.7731 13.7732C14.894 13.7732 15.006 13.7605 15.1083 13.7362C15.551 13.6312 15.8102 13.3096 15.8102 12.8638C15.8102 12.418 15.551 12.0964 15.1083 11.9914C15.006 11.9671 14.894 11.9544 14.7731 11.9544H13.7989V13.7732H14.7731ZM15.9402 16.4454C15.9442 16.4448 15.946 16.4443 15.9459 16.4443C15.9459 16.4442 15.9455 16.4443 15.9449 16.4444C15.9439 16.4446 15.9424 16.4449 15.9402 16.4454ZM15.9459 17.2485C15.946 17.2484 15.9442 17.2479 15.9402 17.2473C15.9427 17.2479 15.9444 17.2483 15.9452 17.2484C15.9457 17.2485 15.9459 17.2485 15.9459 17.2485ZM16.9101 16.8464C16.9101 17.4579 16.5173 17.7558 15.873 17.7558H13.7989V15.937H15.873C16.5173 15.937 16.9101 16.2349 16.9101 16.8464Z" fill="white"/>
</svg>
