<svg width="50" height="50" viewBox="0 0 50 50" fill="none" xmlns="http://www.w3.org/2000/svg">
<path fill-rule="evenodd" clip-rule="evenodd" d="M5 0H45C47.7616 0 50 2.2384 50 5V45C50 47.7616 47.7616 50 45 50H5C2.2384 50 0 47.7616 0 45V5C0 2.2384 2.2384 0 5 0Z" fill="#010101"/>
<path fill-rule="evenodd" clip-rule="evenodd" d="M31.396 45.9998C32.9174 45.9998 34.1508 44.7764 34.1508 43.2674C34.1508 41.7584 32.9174 40.5348 31.396 40.5348H30.981C32.5024 40.5348 33.7358 41.7584 33.7358 43.2674C33.7358 44.7764 32.5024 45.9998 30.981 45.9998H31.396Z" fill="#EE1D51"/>
<path fill-rule="evenodd" clip-rule="evenodd" d="M30.9434 40.5348H30.5284C29.007 40.5348 27.7734 41.7584 27.7734 43.2674C27.7734 44.7764 29.007 45.9998 30.5284 45.9998H30.9434C29.4218 45.9998 28.1884 44.7764 28.1884 43.2674C28.1884 41.7584 29.4218 40.5348 30.9434 40.5348Z" fill="#66C8CF"/>
<path d="M30.9624 44.5965C31.7023 44.5965 32.3022 44.0017 32.3022 43.2679C32.3022 42.5342 31.7023 41.9393 30.9624 41.9393C30.2224 41.9393 29.6226 42.5342 29.6226 43.2679C29.6226 44.0017 30.2224 44.5965 30.9624 44.5965Z" fill="#010101"/>
<path fill-rule="evenodd" clip-rule="evenodd" d="M10 39.2998V40.6848H11.6224V45.9624H13.2454V40.7222H14.566L15.0188 39.2998H10ZM23.283 39.2998V40.6848H24.9054V45.9624H26.5284V40.7222H27.849L28.3018 39.2998H23.283ZM15.321 40.0858C15.321 39.6518 15.6752 39.2998 16.1128 39.2998C16.5508 39.2998 16.9054 39.6518 16.9054 40.0858C16.9054 40.5198 16.551 40.8718 16.1128 40.8718C15.6752 40.8716 15.321 40.5198 15.321 40.0858ZM15.321 41.4334H16.9054V45.9624H15.321V41.4334ZM17.5848 39.2998V45.9624H19.1698V44.2408L19.6604 43.7912L21.2074 45.9998H22.9054L20.6788 42.7808L22.6788 40.8342H20.7544L19.1698 42.4062V39.2998H17.5848ZM34.6788 39.2998V45.9624H36.264V44.2408L36.7544 43.7912L38.3018 45.9998H40L37.7734 42.7808L39.7734 40.8342H37.849L36.264 42.4062V39.2998H34.6788Z" fill="white"/>
<path fill-rule="evenodd" clip-rule="evenodd" d="M32.2335 16.2374C34.4223 17.8012 37.1039 18.7214 39.9999 18.7214V13.1512C39.4518 13.1514 38.9051 13.0942 38.3689 12.9806V17.3652C35.4731 17.3652 32.7919 16.445 30.6025 14.8812V26.2482C30.6025 31.9346 25.9905 36.544 20.3015 36.544C18.1789 36.544 16.2059 35.9026 14.5669 34.8026C16.4375 36.7142 19.0461 37.9002 21.9321 37.9002C27.6215 37.9002 32.2337 33.2908 32.2337 27.6042V16.2374H32.2335ZM34.2455 10.6178C33.1269 9.3964 32.3925 7.8178 32.2335 6.0726V5.3562H30.6879C31.0769 7.5742 32.4039 9.4692 34.2455 10.6178ZM18.1651 30.4392C17.5402 29.6202 17.2024 28.6182 17.2039 27.588C17.2039 24.9872 19.3135 22.8786 21.9161 22.8786C22.4011 22.8783 22.8832 22.9527 23.3455 23.0992V17.4046C22.8053 17.3306 22.2602 17.2993 21.7151 17.3108V21.7432C21.2526 21.5967 20.7703 21.5223 20.2851 21.5226C17.6825 21.5226 15.5731 23.6312 15.5731 26.2322C15.5731 28.0712 16.6275 29.6636 18.1651 30.4392Z" fill="#EE1D52"/>
<path fill-rule="evenodd" clip-rule="evenodd" d="M30.6025 14.8812C32.7919 16.445 35.4731 17.3652 38.3689 17.3652V12.9806C36.7525 12.6366 35.3215 11.7922 34.2455 10.6178C32.4039 9.4692 31.0769 7.5742 30.6879 5.3562H26.6281V27.604C26.6189 30.1976 24.5129 32.2976 21.9159 32.2976C20.3855 32.2976 19.0259 31.5686 18.1649 30.4392C16.6273 29.6636 15.5729 28.0712 15.5729 26.2322C15.5729 23.6312 17.6823 21.5226 20.2849 21.5226C20.7835 21.5226 21.2641 21.6002 21.7149 21.7432V17.3108C16.1259 17.4262 11.6309 21.9906 11.6309 27.6042C11.6309 30.4064 12.7503 32.9468 14.5669 34.8028C16.2059 35.9028 18.1789 36.5442 20.3015 36.5442C25.9905 36.5442 30.6025 31.9346 30.6025 26.2484V14.8812Z" fill="white"/>
<path fill-rule="evenodd" clip-rule="evenodd" d="M38.3688 12.9803V11.7947C36.9111 11.7969 35.4822 11.3889 34.2454 10.6173C35.3402 11.8152 36.7817 12.6414 38.3688 12.9803ZM30.6878 5.35588C30.6506 5.14393 30.6221 4.93055 30.6024 4.71628V3.99988H24.9968V26.2479C24.9878 28.8413 22.882 30.9413 20.2848 30.9413C19.5222 30.9413 18.8024 30.7605 18.1648 30.4389C19.0258 31.5683 20.3854 32.2973 21.9158 32.2973C24.5126 32.2973 26.6188 30.1973 26.628 27.6037V5.35588H30.6878ZM21.715 17.3105V16.0483C21.2466 15.9842 20.7744 15.9522 20.3016 15.9525C14.612 15.9525 10 20.5621 10 26.2479C10 29.8127 11.8126 32.9543 14.567 34.8023C12.7504 32.9463 11.631 30.4059 11.631 27.6037C11.631 21.9903 16.1258 17.4259 21.715 17.3105Z" fill="#69C9D0"/>
<path fill-rule="evenodd" clip-rule="evenodd" d="M30.9809 45.9998C32.5023 45.9998 33.7359 44.7764 33.7359 43.2674C33.7359 41.7584 32.5023 40.5348 30.9809 40.5348H30.9433C29.4219 40.5348 28.1885 41.7584 28.1885 43.2674C28.1885 44.7764 29.4219 45.9998 30.9433 45.9998H30.9809ZM29.6225 43.2674C29.6225 42.5334 30.2225 41.9388 30.9625 41.9388C31.7019 41.9388 32.3019 42.5334 32.3019 43.2674C32.3019 44.0014 31.7019 44.5964 30.9625 44.5964C30.2225 44.5962 29.6225 44.0014 29.6225 43.2674Z" fill="white"/>
</svg>
